<?xml version="1.0" standalone="no"?>
<!DOCTYPE svg PUBLIC "-//W3C//DTD SVG 20010904//EN"
 "http://www.w3.org/TR/2001/REC-SVG-20010904/DTD/svg10.dtd">
<svg version="1.0" xmlns="http://www.w3.org/2000/svg"
 width="575.000000pt" height="575.000000pt" viewBox="0 0 575.000000 575.000000"
 preserveAspectRatio="xMidYMid meet">
<metadata>
Created by potrace 1.14, written by Peter Selinger 2001-2017
</metadata>
<g transform="translate(0.000000,575.000000) scale(0.100000,-0.100000)"
fill="#000000" stroke="none">
<path d="M3114 4887 c-72 -37 -77 -45 -154 -297 -23 -74 -44 -142 -47 -150 -3
-8 -7 -20 -8 -26 -2 -6 -23 -76 -48 -155 -25 -79 -75 -241 -112 -359 -37 -118
-79 -253 -95 -300 -23 -70 -45 -141 -56 -182 -1 -5 -2 -9 -4 -10 -1 -2 -3 -10
-5 -18 -4 -18 -63 -208 -72 -230 -3 -8 -7 -19 -8 -25 -2 -5 -44 -143 -95 -305
-51 -162 -98 -315 -106 -340 -7 -25 -20 -65 -28 -90 -24 -71 -117 -371 -121
-389 -3 -9 -50 -160 -106 -336 -125 -396 -169 -543 -169 -566 0 -10 10 -30 23
-45 19 -22 33 -27 72 -29 46 -1 50 -3 57 -31 12 -47 40 -67 98 -68 41 -1 50
-4 50 -19 0 -10 12 -31 28 -46 l27 -28 165 2 c236 2 253 14 315 211 145 471
278 896 289 929 8 22 24 74 36 115 12 41 24 82 27 90 4 8 7 17 8 20 7 28 47
156 96 313 33 106 62 199 64 207 3 8 20 65 39 125 19 61 49 157 67 215 17 58
35 114 39 125 9 23 64 200 110 355 17 58 34 112 37 120 4 8 7 17 8 20 0 3 11
39 25 80 13 41 25 80 26 85 13 50 57 192 62 200 4 6 8 15 9 20 8 36 30 108 96
319 63 201 73 244 65 268 -11 32 -42 53 -64 44 -8 -3 -12 -2 -9 3 3 5 -7 9
-22 9 -47 -1 -50 1 -56 30 -8 36 -42 56 -97 57 -25 0 -45 5 -45 10 -2 36 -19
67 -43 77 -15 6 -93 12 -179 13 -131 1 -156 -1 -189 -18z"/>
<path d="M2129 4312 c-19 -9 -135 -65 -259 -125 -124 -60 -292 -142 -375 -182
-82 -40 -262 -128 -400 -196 -137 -67 -252 -123 -255 -124 -5 -1 -155 -74
-475 -230 -201 -99 -235 -137 -269 -296 -9 -41 -26 -117 -37 -169 -27 -125
-29 -149 -18 -156 5 -3 7 -10 4 -15 -3 -5 2 -28 13 -51 14 -33 47 -66 143
-143 68 -55 130 -106 139 -112 8 -7 215 -173 460 -369 502 -402 502 -402 533
-428 12 -10 36 -24 52 -31 17 -8 56 -34 89 -59 32 -25 65 -46 73 -46 14 0 72
-35 83 -51 3 -3 20 -15 38 -26 40 -25 77 -19 99 14 26 39 100 315 97 361 -5
84 -15 95 -284 332 -40 36 -78 70 -84 75 -6 6 -49 44 -96 85 -47 41 -87 77
-90 80 -3 3 -78 70 -167 149 -90 79 -164 148 -164 155 -1 6 -3 22 -4 34 -4 37
30 65 165 135 69 36 179 94 245 129 66 35 127 67 135 71 8 4 42 22 75 40 33
18 116 62 185 98 69 37 154 82 190 101 36 19 118 63 183 97 156 82 206 131
242 236 9 28 18 57 20 65 2 8 4 15 5 15 1 0 3 7 5 15 1 8 22 79 45 157 23 78
40 150 38 160 -6 31 -49 32 -110 1 -32 -15 -59 -28 -62 -28 -2 0 2 21 10 48
29 94 -1 116 -97 71 -34 -16 -63 -28 -65 -26 -2 2 3 25 12 51 28 82 0 120 -67
88z"/>
<path d="M3976 4296 c-20 -15 -34 -44 -52 -106 -49 -166 -65 -234 -63 -269 4
-59 46 -121 131 -196 44 -38 93 -81 108 -95 15 -14 56 -50 90 -80 35 -30 75
-66 90 -80 15 -14 55 -50 90 -80 34 -30 75 -66 90 -80 15 -14 56 -50 91 -80
149 -129 197 -175 200 -192 1 -5 2 -14 3 -20 6 -35 -32 -69 -128 -119 -56 -28
-105 -55 -111 -59 -5 -4 -73 -40 -150 -80 -77 -40 -153 -81 -170 -90 -16 -10
-84 -46 -150 -80 -66 -35 -142 -75 -170 -90 -27 -15 -97 -52 -155 -82 -234
-122 -281 -151 -318 -193 -20 -23 -43 -53 -49 -66 -11 -20 -104 -320 -120
-383 -29 -116 -5 -135 98 -81 27 14 53 25 58 25 5 0 3 -21 -5 -47 -19 -62 -18
-90 4 -102 16 -9 49 1 149 45 8 4 7 -6 -2 -33 -27 -73 -11 -120 35 -105 8 2
141 66 295 142 476 234 1299 641 1315 650 45 25 323 160 331 160 5 0 9 5 9 10
0 6 5 10 10 10 14 0 50 35 83 80 23 32 37 72 51 140 8 42 15 71 20 88 3 9 8
32 11 51 3 19 8 38 11 42 11 18 5 116 -9 149 -21 49 -34 61 -192 188 -77 62
-147 118 -155 125 -8 7 -94 75 -190 151 -96 77 -177 143 -180 146 -3 3 -36 30
-75 60 -38 30 -79 63 -90 72 -136 117 -474 378 -488 378 -10 0 -37 15 -60 34
-23 18 -58 41 -77 51 -19 10 -53 32 -75 50 -23 18 -57 40 -77 48 -33 14 -37
14 -62 -7z"/>
</g>
</svg>
